<svg xmlns="http://www.w3.org/2000/svg" xmlns:xlink="http://www.w3.org/1999/xlink" width="500" zoomAndPan="magnify" viewBox="0 0 375 374.999991" height="500" preserveAspectRatio="xMidYMid meet" version="1.0"><defs><clipPath id="f92c1753bf"><path d="M 0 0 L 374.898438 0 L 374.898438 374.898438 L 0 374.898438 Z M 0 0 " clip-rule="nonzero"/></clipPath><clipPath id="74f3e33f66"><path d="M 65.007812 108.832031 L 310.960938 108.832031 L 310.960938 266.433594 L 65.007812 266.433594 Z M 65.007812 108.832031 " clip-rule="nonzero"/></clipPath><clipPath id="bd98b170f4"><path d="M 75 221 L 157 221 L 157 302 L 75 302 Z M 75 221 " clip-rule="nonzero"/></clipPath><clipPath id="b283099a7d"><path d="M 174.378906 291.101562 L 93.363281 311.625 L 75.769531 242.183594 L 156.789062 221.660156 Z M 174.378906 291.101562 " clip-rule="nonzero"/></clipPath></defs><g clip-path="url(#f92c1753bf)"><path fill="#ffffff" d="M 187.449219 0 C 83.925781 0 0 83.925781 0 187.449219 C 0 290.976562 83.925781 374.898438 187.449219 374.898438 C 290.976562 374.898438 374.898438 290.976562 374.898438 187.449219 C 374.898438 83.925781 290.976562 0 187.449219 0 " fill-opacity="1" fill-rule="nonzero"/></g><g clip-path="url(#74f3e33f66)"><path fill="#3b82f6" d="M 82.347656 108.832031 L 293.621094 108.832031 C 298.214844 108.832031 302.617188 110.652344 305.867188 113.894531 C 309.113281 117.132812 310.9375 121.53125 310.9375 126.113281 L 310.9375 249.15625 C 310.9375 253.738281 309.113281 258.132812 305.867188 261.375 C 302.617188 264.613281 298.214844 266.433594 293.621094 266.433594 L 82.347656 266.433594 C 77.753906 266.433594 73.351562 264.613281 70.101562 261.375 C 66.855469 258.132812 65.03125 253.738281 65.03125 249.15625 L 65.03125 126.113281 C 65.03125 121.53125 66.855469 117.132812 70.101562 113.894531 C 73.351562 110.652344 77.753906 108.832031 82.347656 108.832031 " fill-opacity="1" fill-rule="nonzero"/></g><g clip-path="url(#bd98b170f4)"><g clip-path="url(#b283099a7d)"><path fill="#3b82f6" d="M 133.871094 301.359375 L 75.773438 242.1875 L 156.789062 221.664062 L 133.871094 301.359375 " fill-opacity="1" fill-rule="nonzero"/></g></g></svg>